<svg xmlns="http://www.w3.org/2000/svg" width="25" height="25" viewBox="0 0 25 25" fill="none">
  <path d="M7.29165 5.20834C6.73911 5.20834 6.20921 5.42784 5.81851 5.81854C5.42781 6.20924 5.20831 6.73914 5.20831 7.29168V17.7083C5.20831 18.2609 5.42781 18.7908 5.81851 19.1815C6.20921 19.5722 6.73911 19.7917 7.29165 19.7917H17.7083C18.2608 19.7917 18.7908 19.5722 19.1815 19.1815C19.5722 18.7908 19.7916 18.2609 19.7916 17.7083V7.29168C19.7916 6.73914 19.5722 6.20924 19.1815 5.81854C18.7908 5.42784 18.2608 5.20834 17.7083 5.20834H7.29165ZM11.4583 16.0563L8.63852 13.2365L10.1114 11.7636L11.4583 13.1104L15.4094 9.15939L16.8823 10.6323L11.4583 16.0563Z" fill="#087AFF"/>
</svg>